<mxfile host="app.diagrams.net" modified="2021-11-06T18:16:05.337Z" agent="5.0 (Windows NT 10.0; Win64; x64) AppleWebKit/537.36 (KHTML, like Gecko) Chrome/95.0.4638.54 Safari/537.36 Edg/95.0.1020.40" etag="tVRGxyYUwwymQH_OZbdP" version="15.7.0" type="github">
  <diagram id="LYs9jlWkUUdBGs7bz0lL" name="Page-1">
    <mxGraphModel dx="3128" dy="1872" grid="1" gridSize="10" guides="1" tooltips="1" connect="1" arrows="1" fold="1" page="1" pageScale="1" pageWidth="1100" pageHeight="850" math="0" shadow="0">
      <root>
        <mxCell id="0" />
        <mxCell id="1" parent="0" />
        <UserObject label="Vixen" lucidchartObjectId="rNwogV_dCgLL" id="FUiJqStSi06S3eD_Z6eS-2">
          <mxCell style="html=1;overflow=block;blockSpacing=1;whiteSpace=wrap;;whiteSpace=wrap;fontSize=16.7;fontColor=#333333;spacing=3.8;strokeColor=#5e5e5e;strokeOpacity=100;absoluteArcSize=1;arcSize=9;strokeWidth=2.3;rounded=1;sketch=1;" vertex="1" parent="1">
            <mxGeometry x="77.5" y="695" width="120" height="45" as="geometry" />
          </mxCell>
        </UserObject>
        <UserObject label="SalmonRiver" lucidchartObjectId="HNwoF9cMgqQK" id="FUiJqStSi06S3eD_Z6eS-3">
          <mxCell style="html=1;overflow=block;blockSpacing=1;whiteSpace=wrap;;whiteSpace=wrap;fontSize=16.7;fontColor=#333333;spacing=3.8;strokeColor=#5e5e5e;strokeOpacity=100;absoluteArcSize=1;arcSize=9;strokeWidth=2.3;rounded=1;sketch=1;" vertex="1" parent="1">
            <mxGeometry x="227.5" y="695" width="120" height="45" as="geometry" />
          </mxCell>
        </UserObject>
        <UserObject label="SparkCall" lucidchartObjectId="INwogG9h2kRV" id="FUiJqStSi06S3eD_Z6eS-4">
          <mxCell style="html=1;overflow=block;blockSpacing=1;whiteSpace=wrap;;whiteSpace=wrap;fontSize=16.7;fontColor=#333333;spacing=3.8;strokeColor=#5e5e5e;strokeOpacity=100;absoluteArcSize=1;arcSize=9;strokeWidth=2.3;rounded=1;sketch=1;" vertex="1" parent="1">
            <mxGeometry x="377.5" y="695" width="120" height="45" as="geometry" />
          </mxCell>
        </UserObject>
        <UserObject label="RobinBelly" lucidchartObjectId="nOwo3FwqswKj" id="FUiJqStSi06S3eD_Z6eS-5">
          <mxCell style="html=1;overflow=block;blockSpacing=1;whiteSpace=wrap;;whiteSpace=wrap;fontSize=16.7;fontColor=#333333;spacing=3.8;strokeColor=#5e5e5e;strokeOpacity=100;absoluteArcSize=1;arcSize=9;strokeWidth=2.3;rounded=1;sketch=1;" vertex="1" parent="1">
            <mxGeometry x="1277.5" y="771" width="120" height="45" as="geometry" />
          </mxCell>
        </UserObject>
        <UserObject label="RippedScar" lucidchartObjectId="nOwo7iQaO23C" id="FUiJqStSi06S3eD_Z6eS-6">
          <mxCell style="html=1;overflow=block;blockSpacing=1;whiteSpace=wrap;;whiteSpace=wrap;fontSize=16.7;fontColor=#333333;spacing=3.8;strokeColor=#5e5e5e;strokeOpacity=100;absoluteArcSize=1;arcSize=9;strokeWidth=2.3;rounded=1;sketch=1;" vertex="1" parent="1">
            <mxGeometry x="902.5" y="620" width="120" height="45" as="geometry" />
          </mxCell>
        </UserObject>
        <UserObject label="LightLeap" lucidchartObjectId="nOwo-KONdXus" id="FUiJqStSi06S3eD_Z6eS-7">
          <mxCell style="html=1;overflow=block;blockSpacing=1;whiteSpace=wrap;;whiteSpace=wrap;fontSize=16.7;fontColor=#333333;spacing=3.8;strokeColor=#5e5e5e;strokeOpacity=100;absoluteArcSize=1;arcSize=9;strokeWidth=2.3;rounded=1;sketch=1;" vertex="1" parent="1">
            <mxGeometry x="827.5" y="695" width="120" height="45" as="geometry" />
          </mxCell>
        </UserObject>
        <UserObject label="LakeRose" lucidchartObjectId="nOwoG6fCtJm5" id="FUiJqStSi06S3eD_Z6eS-8">
          <mxCell style="html=1;overflow=block;blockSpacing=1;whiteSpace=wrap;;whiteSpace=wrap;fontSize=16.7;fontColor=#333333;spacing=3.8;strokeColor=#5e5e5e;strokeOpacity=100;absoluteArcSize=1;arcSize=9;strokeWidth=2.3;rounded=1;sketch=1;" vertex="1" parent="1">
            <mxGeometry x="1127.5" y="695" width="120" height="45" as="geometry" />
          </mxCell>
        </UserObject>
        <UserObject label="TigerLeap" lucidchartObjectId="~UwoI_.Jccfk" id="FUiJqStSi06S3eD_Z6eS-9">
          <mxCell style="html=1;overflow=block;blockSpacing=1;whiteSpace=wrap;;whiteSpace=wrap;fontSize=16.7;fontColor=#333333;spacing=3.8;strokeColor=#5e5e5e;strokeOpacity=100;absoluteArcSize=1;arcSize=9;strokeWidth=2.3;rounded=1;sketch=1;" vertex="1" parent="1">
            <mxGeometry x="1557.5" y="695" width="120" height="45" as="geometry" />
          </mxCell>
        </UserObject>
        <UserObject label="CricketMist" lucidchartObjectId="~UwojIPjVIOI" id="FUiJqStSi06S3eD_Z6eS-10">
          <mxCell style="html=1;overflow=block;blockSpacing=1;whiteSpace=wrap;;whiteSpace=wrap;fontSize=16.7;fontColor=#333333;spacing=3.8;strokeColor=#5e5e5e;strokeOpacity=100;absoluteArcSize=1;arcSize=9;strokeWidth=2.3;rounded=1;sketch=1;" vertex="1" parent="1">
            <mxGeometry x="1277.5" y="695" width="120" height="45" as="geometry" />
          </mxCell>
        </UserObject>
        <mxCell id="FUiJqStSi06S3eD_Z6eS-11" style="edgeStyle=none;orthogonalLoop=1;jettySize=auto;html=1;exitX=0.5;exitY=0;exitDx=0;exitDy=0;endArrow=none;endFill=0;sketch=1;" edge="1" parent="1" source="FUiJqStSi06S3eD_Z6eS-12">
          <mxGeometry relative="1" as="geometry">
            <mxPoint x="1868" y="508" as="targetPoint" />
          </mxGeometry>
        </mxCell>
        <UserObject label="FernFate" lucidchartObjectId="AWwoFBo2OCs_" id="FUiJqStSi06S3eD_Z6eS-12">
          <mxCell style="html=1;overflow=block;blockSpacing=1;whiteSpace=wrap;;whiteSpace=wrap;fontSize=16.7;fontColor=#333333;spacing=3.8;strokeColor=#5e5e5e;strokeOpacity=100;absoluteArcSize=1;arcSize=9;strokeWidth=2.3;rounded=1;sketch=1;" vertex="1" parent="1">
            <mxGeometry x="1807.5" y="555" width="120" height="45" as="geometry" />
          </mxCell>
        </UserObject>
        <UserObject label="WishTwist" lucidchartObjectId="AWwozbQCYoxc" id="FUiJqStSi06S3eD_Z6eS-13">
          <mxCell style="html=1;overflow=block;blockSpacing=1;whiteSpace=wrap;;whiteSpace=wrap;fontSize=16.7;fontColor=#333333;spacing=3.8;strokeColor=#5e5e5e;strokeOpacity=100;absoluteArcSize=1;arcSize=9;strokeWidth=2.3;rounded=1;sketch=1;" vertex="1" parent="1">
            <mxGeometry x="1707.5" y="695" width="120" height="45" as="geometry" />
          </mxCell>
        </UserObject>
        <UserObject label="Unknown" lucidchartObjectId="FXwobTlocv3_" id="FUiJqStSi06S3eD_Z6eS-14">
          <mxCell style="html=1;overflow=block;blockSpacing=1;whiteSpace=wrap;;whiteSpace=wrap;fontSize=16.7;fontColor=#333333;spacing=3.8;strokeColor=#5e5e5e;strokeOpacity=100;absoluteArcSize=1;arcSize=9;strokeWidth=2.3;rounded=1;sketch=1;" vertex="1" parent="1">
            <mxGeometry x="1052.5" y="620" width="120" height="45" as="geometry" />
          </mxCell>
        </UserObject>
        <UserObject label="" lucidchartObjectId="TXwo7eGYLWNq" id="FUiJqStSi06S3eD_Z6eS-15">
          <mxCell style="html=1;jettySize=18;whiteSpace=wrap;fontSize=13;strokeColor=#b85450;strokeOpacity=100;strokeWidth=1.5;arcSize=12;edgeStyle=orthogonalEdgeStyle;startArrow=none;;endArrow=none;;exitX=-0.009;exitY=0.5;exitPerimeter=0;entryX=1.009;entryY=0.5;entryPerimeter=0;fillColor=#f8cecc;sketch=1;" edge="1" parent="1" source="FUiJqStSi06S3eD_Z6eS-14" target="FUiJqStSi06S3eD_Z6eS-6">
            <mxGeometry width="100" height="100" relative="1" as="geometry">
              <Array as="points" />
            </mxGeometry>
          </mxCell>
        </UserObject>
        <UserObject label="" lucidchartObjectId="E7wo4Ei~iOmB" id="FUiJqStSi06S3eD_Z6eS-16">
          <mxCell style="html=1;jettySize=18;whiteSpace=wrap;fontSize=13;strokeColor=#5E5E5E;strokeWidth=1.5;arcSize=12;edgeStyle=orthogonalEdgeStyle;startArrow=none;;endArrow=none;;exitX=0.5;exitY=-0.025;exitPerimeter=0;sketch=1;" edge="1" parent="1" source="FUiJqStSi06S3eD_Z6eS-18">
            <mxGeometry width="100" height="100" relative="1" as="geometry">
              <Array as="points" />
              <mxPoint x="1037.5" y="643" as="targetPoint" />
            </mxGeometry>
          </mxCell>
        </UserObject>
        <UserObject label="BloomStep" lucidchartObjectId="v8woDU3B5V1E" id="FUiJqStSi06S3eD_Z6eS-17">
          <mxCell style="html=1;overflow=block;blockSpacing=1;whiteSpace=wrap;;whiteSpace=wrap;fontSize=16.7;fontColor=#333333;spacing=3.8;strokeColor=#5e5e5e;strokeOpacity=100;absoluteArcSize=1;arcSize=9;strokeWidth=2.3;rounded=1;sketch=1;" vertex="1" parent="1">
            <mxGeometry x="827.5" y="770" width="120" height="45" as="geometry" />
          </mxCell>
        </UserObject>
        <UserObject label="ThornFate" lucidchartObjectId="Q8wovV4.A276" id="FUiJqStSi06S3eD_Z6eS-18">
          <mxCell style="html=1;overflow=block;blockSpacing=1;whiteSpace=wrap;;whiteSpace=wrap;fontSize=16.7;fontColor=#333333;spacing=3.8;strokeColor=#5e5e5e;strokeOpacity=100;absoluteArcSize=1;arcSize=9;strokeWidth=2.3;rounded=1;sketch=1;" vertex="1" parent="1">
            <mxGeometry x="977.5" y="770" width="120" height="45" as="geometry" />
          </mxCell>
        </UserObject>
        <UserObject label="MapleFreckle" lucidchartObjectId="T8wokQpCtD0_" id="FUiJqStSi06S3eD_Z6eS-19">
          <mxCell style="html=1;overflow=block;blockSpacing=1;whiteSpace=wrap;;whiteSpace=wrap;fontSize=16.7;fontColor=#333333;spacing=3.8;strokeColor=#5e5e5e;strokeOpacity=100;absoluteArcSize=1;arcSize=9;strokeWidth=2.3;rounded=1;sketch=1;" vertex="1" parent="1">
            <mxGeometry x="1127.5" y="769" width="120" height="48" as="geometry" />
          </mxCell>
        </UserObject>
        <UserObject label="" lucidchartObjectId="Gzyo0qhNV2Ji" id="FUiJqStSi06S3eD_Z6eS-20">
          <mxCell style="html=1;jettySize=18;whiteSpace=wrap;fontSize=13;strokeColor=#5E5E5E;strokeWidth=1.5;arcSize=12;edgeStyle=orthogonalEdgeStyle;startArrow=none;;endArrow=none;;exitX=-0.009;exitY=0.5;exitPerimeter=0;entryX=1.009;entryY=0.5;entryPerimeter=0;sketch=1;" edge="1" parent="1" source="FUiJqStSi06S3eD_Z6eS-19" target="FUiJqStSi06S3eD_Z6eS-18">
            <mxGeometry width="100" height="100" relative="1" as="geometry">
              <Array as="points" />
            </mxGeometry>
          </mxCell>
        </UserObject>
        <UserObject label="" lucidchartObjectId="Jzyo0tXkxQN0" id="FUiJqStSi06S3eD_Z6eS-21">
          <mxCell style="html=1;jettySize=18;whiteSpace=wrap;fontSize=13;strokeColor=#5E5E5E;strokeWidth=1.5;arcSize=12;edgeStyle=orthogonalEdgeStyle;startArrow=none;;endArrow=none;;exitX=-0.009;exitY=0.5;exitPerimeter=0;entryX=1.009;entryY=0.5;entryPerimeter=0;sketch=1;" edge="1" parent="1" source="FUiJqStSi06S3eD_Z6eS-18" target="FUiJqStSi06S3eD_Z6eS-17">
            <mxGeometry width="100" height="100" relative="1" as="geometry">
              <Array as="points" />
            </mxGeometry>
          </mxCell>
        </UserObject>
        <UserObject label="" lucidchartObjectId="7HyoYzM~DbjK" id="FUiJqStSi06S3eD_Z6eS-22">
          <mxCell style="html=1;jettySize=18;whiteSpace=wrap;fontSize=13;strokeColor=#b85450;strokeOpacity=100;strokeWidth=1.5;arcSize=12;edgeStyle=orthogonalEdgeStyle;startArrow=none;;endArrow=none;;exitX=-0.009;exitY=0.5;exitPerimeter=0;entryX=1.009;entryY=0.526;entryPerimeter=0;fillColor=#f8cecc;sketch=1;" edge="1" parent="1" source="FUiJqStSi06S3eD_Z6eS-5" target="FUiJqStSi06S3eD_Z6eS-19">
            <mxGeometry width="100" height="100" relative="1" as="geometry">
              <Array as="points" />
            </mxGeometry>
          </mxCell>
        </UserObject>
        <UserObject label="MistFate" lucidchartObjectId="U62nv5oN26xm" id="FUiJqStSi06S3eD_Z6eS-23">
          <mxCell style="html=1;overflow=block;blockSpacing=1;whiteSpace=wrap;;whiteSpace=wrap;fontSize=16.7;fontColor=#333333;spacing=3.8;strokeColor=#5e5e5e;strokeOpacity=100;absoluteArcSize=1;arcSize=9;strokeWidth=2.3;rounded=1;sketch=1;" vertex="1" parent="1">
            <mxGeometry x="70" y="520" width="120" height="45" as="geometry" />
          </mxCell>
        </UserObject>
        <UserObject label="RootFate" lucidchartObjectId="6w6n-J9yklSA" id="FUiJqStSi06S3eD_Z6eS-24">
          <mxCell style="html=1;overflow=block;blockSpacing=1;whiteSpace=wrap;;whiteSpace=wrap;fontSize=16.7;fontColor=#333333;spacing=3.8;strokeColor=#5e5e5e;strokeOpacity=100;absoluteArcSize=1;arcSize=9;strokeWidth=2.3;rounded=1;sketch=1;" vertex="1" parent="1">
            <mxGeometry x="235" y="520" width="120" height="45" as="geometry" />
          </mxCell>
        </UserObject>
        <mxCell id="FUiJqStSi06S3eD_Z6eS-25" style="edgeStyle=none;orthogonalLoop=1;jettySize=auto;html=1;exitX=0;exitY=0.5;exitDx=0;exitDy=0;endArrow=none;endFill=0;fillColor=#f8cecc;strokeColor=#b85450;sketch=1;" edge="1" parent="1" source="FUiJqStSi06S3eD_Z6eS-26" target="FUiJqStSi06S3eD_Z6eS-29">
          <mxGeometry relative="1" as="geometry" />
        </mxCell>
        <UserObject label="BlueThroat" lucidchartObjectId="9w6nF3neg0Av" id="FUiJqStSi06S3eD_Z6eS-26">
          <mxCell style="html=1;overflow=block;blockSpacing=1;whiteSpace=wrap;;whiteSpace=wrap;fontSize=16.7;fontColor=#333333;spacing=3.8;strokeColor=#5e5e5e;strokeOpacity=100;absoluteArcSize=1;arcSize=9;strokeWidth=2.3;rounded=1;sketch=1;" vertex="1" parent="1">
            <mxGeometry x="890" y="455" width="120" height="45" as="geometry" />
          </mxCell>
        </UserObject>
        <UserObject label="RedSpot" lucidchartObjectId="ix6n19~cwBaz" id="FUiJqStSi06S3eD_Z6eS-27">
          <mxCell style="html=1;overflow=block;blockSpacing=1;whiteSpace=wrap;;whiteSpace=wrap;fontSize=16.7;fontColor=#333333;spacing=3.8;strokeColor=#5e5e5e;strokeOpacity=100;absoluteArcSize=1;arcSize=9;strokeWidth=2.3;rounded=1;sketch=1;" vertex="1" parent="1">
            <mxGeometry x="527.5" y="520" width="120" height="45" as="geometry" />
          </mxCell>
        </UserObject>
        <UserObject label="IcyFur" lucidchartObjectId="lx6nJb_0bG_-" id="FUiJqStSi06S3eD_Z6eS-28">
          <mxCell style="html=1;overflow=block;blockSpacing=1;whiteSpace=wrap;;whiteSpace=wrap;fontSize=16.7;fontColor=#333333;spacing=3.8;strokeColor=#5e5e5e;strokeOpacity=100;absoluteArcSize=1;arcSize=9;strokeWidth=2.3;rounded=1;sketch=1;" vertex="1" parent="1">
            <mxGeometry x="657.5" y="270" width="120" height="45" as="geometry" />
          </mxCell>
        </UserObject>
        <UserObject label="AmberSong" lucidchartObjectId="nx6n3Eqgzo.t" id="FUiJqStSi06S3eD_Z6eS-29">
          <mxCell style="html=1;overflow=block;blockSpacing=1;whiteSpace=wrap;;whiteSpace=wrap;fontSize=16.7;fontColor=#333333;spacing=3.8;strokeColor=#5e5e5e;strokeOpacity=100;absoluteArcSize=1;arcSize=9;strokeWidth=2.3;rounded=1;sketch=1;" vertex="1" parent="1">
            <mxGeometry x="730" y="455" width="120" height="45" as="geometry" />
          </mxCell>
        </UserObject>
        <UserObject label="FernStep(Puddle)" lucidchartObjectId="jC6nwOgTyKPv" id="FUiJqStSi06S3eD_Z6eS-30">
          <mxCell style="html=1;overflow=block;blockSpacing=1;whiteSpace=wrap;;whiteSpace=wrap;fontSize=16.7;fontColor=#333333;spacing=3.8;strokeColor=#5e5e5e;strokeOpacity=100;absoluteArcSize=1;arcSize=9;strokeWidth=2.3;rounded=1;sketch=1;" vertex="1" parent="1">
            <mxGeometry x="507.5" y="190" width="120" height="45" as="geometry" />
          </mxCell>
        </UserObject>
        <UserObject label="WetClaw" lucidchartObjectId="sC6n0QGDRm1p" id="FUiJqStSi06S3eD_Z6eS-31">
          <mxCell style="html=1;overflow=block;blockSpacing=1;whiteSpace=wrap;;whiteSpace=wrap;fontSize=16.7;fontColor=#333333;spacing=3.8;strokeColor=#5e5e5e;strokeOpacity=100;absoluteArcSize=1;arcSize=9;strokeWidth=2.3;rounded=1;sketch=1;" vertex="1" parent="1">
            <mxGeometry x="385" y="520" width="120" height="45" as="geometry" />
          </mxCell>
        </UserObject>
        <UserObject label="PineBlaze" lucidchartObjectId="uC6ns7wwrMkW" id="FUiJqStSi06S3eD_Z6eS-32">
          <mxCell style="html=1;overflow=block;blockSpacing=1;whiteSpace=wrap;;whiteSpace=wrap;fontSize=16.7;fontColor=#333333;spacing=3.8;strokeColor=#5e5e5e;strokeOpacity=100;absoluteArcSize=1;arcSize=9;strokeWidth=2.3;rounded=1;sketch=1;" vertex="1" parent="1">
            <mxGeometry x="1117.5" y="520" width="120" height="45" as="geometry" />
          </mxCell>
        </UserObject>
        <UserObject label="FloralHeart" lucidchartObjectId="xC6nqglZxt7i" id="FUiJqStSi06S3eD_Z6eS-33">
          <mxCell style="html=1;overflow=block;blockSpacing=1;whiteSpace=wrap;;whiteSpace=wrap;fontSize=16.7;fontColor=#333333;spacing=3.8;strokeColor=#5e5e5e;strokeOpacity=100;absoluteArcSize=1;arcSize=9;strokeWidth=2.3;rounded=1;sketch=1;" vertex="1" parent="1">
            <mxGeometry x="707.5" y="100" width="120" height="45" as="geometry" />
          </mxCell>
        </UserObject>
        <UserObject label="FlameFace" lucidchartObjectId="aD6n6iyjvHGV" id="FUiJqStSi06S3eD_Z6eS-34">
          <mxCell style="html=1;overflow=block;blockSpacing=1;whiteSpace=wrap;;whiteSpace=wrap;fontSize=16.7;fontColor=#333333;spacing=3.8;strokeColor=#5e5e5e;strokeOpacity=100;absoluteArcSize=1;arcSize=9;strokeWidth=2.3;rounded=1;sketch=1;" vertex="1" parent="1">
            <mxGeometry x="1507.5" y="540" width="120" height="45" as="geometry" />
          </mxCell>
        </UserObject>
        <UserObject label="SandFeather" lucidchartObjectId="DD6n1941-2t5" id="FUiJqStSi06S3eD_Z6eS-35">
          <mxCell style="html=1;overflow=block;blockSpacing=1;whiteSpace=wrap;;whiteSpace=wrap;fontSize=16.7;fontColor=#333333;spacing=3.8;strokeColor=#5e5e5e;strokeOpacity=100;absoluteArcSize=1;arcSize=9;strokeWidth=2.3;rounded=1;sketch=1;" vertex="1" parent="1">
            <mxGeometry x="677.5" y="520" width="120" height="45" as="geometry" />
          </mxCell>
        </UserObject>
        <UserObject label="BriarFoot" lucidchartObjectId="QD6n8ffQyixK" id="FUiJqStSi06S3eD_Z6eS-36">
          <mxCell style="html=1;overflow=block;blockSpacing=1;whiteSpace=wrap;;whiteSpace=wrap;fontSize=16.7;fontColor=#333333;spacing=3.8;strokeColor=#5e5e5e;strokeOpacity=100;absoluteArcSize=1;arcSize=9;strokeWidth=2.3;rounded=1;sketch=1;" vertex="1" parent="1">
            <mxGeometry x="1282.5" y="455" width="120" height="45" as="geometry" />
          </mxCell>
        </UserObject>
        <UserObject label="SandPool" lucidchartObjectId="xK6nVe37aGVh" id="FUiJqStSi06S3eD_Z6eS-37">
          <mxCell style="html=1;overflow=block;blockSpacing=1;whiteSpace=wrap;;whiteSpace=wrap;fontSize=16.7;fontColor=#333333;spacing=3.8;strokeColor=#5e5e5e;strokeOpacity=100;absoluteArcSize=1;arcSize=9;strokeWidth=2.3;rounded=1;sketch=1;" vertex="1" parent="1">
            <mxGeometry x="1432.5" y="455" width="120" height="45" as="geometry" />
          </mxCell>
        </UserObject>
        <UserObject label="LeafFang" lucidchartObjectId="GL6nMM1_W.dq" id="FUiJqStSi06S3eD_Z6eS-38">
          <mxCell style="html=1;overflow=block;blockSpacing=1;whiteSpace=wrap;;whiteSpace=wrap;fontSize=16.7;fontColor=#333333;spacing=3.8;strokeColor=#5e5e5e;strokeOpacity=100;absoluteArcSize=1;arcSize=9;strokeWidth=2.3;rounded=1;sketch=1;" vertex="1" parent="1">
            <mxGeometry x="1657.5" y="540" width="120" height="45" as="geometry" />
          </mxCell>
        </UserObject>
        <UserObject label="MousePaw" lucidchartObjectId="0L6nMIO2sx.W" id="FUiJqStSi06S3eD_Z6eS-39">
          <mxCell style="html=1;overflow=block;blockSpacing=1;whiteSpace=wrap;;whiteSpace=wrap;fontSize=16.7;fontColor=#333333;spacing=3.8;strokeColor=#5e5e5e;strokeOpacity=100;absoluteArcSize=1;arcSize=9;strokeWidth=2.3;rounded=1;sketch=1;" vertex="1" parent="1">
            <mxGeometry x="1267.5" y="520" width="120" height="45" as="geometry" />
          </mxCell>
        </UserObject>
        <UserObject label="" lucidchartObjectId="dM6nYuE2K-EU" id="FUiJqStSi06S3eD_Z6eS-40">
          <mxCell style="html=1;jettySize=18;whiteSpace=wrap;fontSize=13;strokeColor=#b85450;strokeOpacity=100;strokeWidth=1.5;arcSize=12;edgeStyle=orthogonalEdgeStyle;startArrow=none;;endArrow=none;;exitX=1.009;exitY=0.5;exitPerimeter=0;entryX=-0.009;entryY=0.5;entryPerimeter=0;fillColor=#f8cecc;sketch=1;" edge="1" parent="1" source="FUiJqStSi06S3eD_Z6eS-36" target="FUiJqStSi06S3eD_Z6eS-37">
            <mxGeometry width="100" height="100" relative="1" as="geometry">
              <Array as="points" />
            </mxGeometry>
          </mxCell>
        </UserObject>
        <UserObject label="" lucidchartObjectId="yM6n69nNulBQ" id="FUiJqStSi06S3eD_Z6eS-41">
          <mxCell style="html=1;jettySize=18;whiteSpace=wrap;fontSize=13;strokeColor=#b85450;strokeOpacity=100;strokeWidth=1.5;arcSize=12;edgeStyle=orthogonalEdgeStyle;startArrow=none;;endArrow=none;;exitX=1.009;exitY=0.5;exitPerimeter=0;entryX=-0.009;entryY=0.5;entryPerimeter=0;fillColor=#f8cecc;sketch=1;" edge="1" parent="1" source="FUiJqStSi06S3eD_Z6eS-34">
            <mxGeometry width="100" height="100" relative="1" as="geometry">
              <Array as="points" />
              <mxPoint x="1656.42" y="562.5" as="targetPoint" />
            </mxGeometry>
          </mxCell>
        </UserObject>
        <UserObject label="" lucidchartObjectId="RM6nxCDNBZhi" id="FUiJqStSi06S3eD_Z6eS-42">
          <mxCell style="html=1;jettySize=18;whiteSpace=wrap;fontSize=13;strokeColor=#b85450;strokeOpacity=100;strokeWidth=1.5;arcSize=12;edgeStyle=orthogonalEdgeStyle;startArrow=none;;endArrow=none;;exitX=1.009;exitY=0.5;exitPerimeter=0;entryX=-0.009;entryY=0.5;entryPerimeter=0;fillColor=#f8cecc;sketch=1;" edge="1" parent="1" source="FUiJqStSi06S3eD_Z6eS-32" target="FUiJqStSi06S3eD_Z6eS-39">
            <mxGeometry width="100" height="100" relative="1" as="geometry">
              <Array as="points" />
            </mxGeometry>
          </mxCell>
        </UserObject>
        <UserObject label="TallEye" lucidchartObjectId="6N6nyGdsrVmk" id="FUiJqStSi06S3eD_Z6eS-43">
          <mxCell style="html=1;overflow=block;blockSpacing=1;whiteSpace=wrap;;whiteSpace=wrap;fontSize=16.7;fontColor=#333333;spacing=3.8;strokeColor=#5e5e5e;strokeOpacity=100;absoluteArcSize=1;arcSize=9;strokeWidth=2.3;rounded=1;sketch=1;" vertex="1" parent="1">
            <mxGeometry x="827.5" y="520" width="120" height="45" as="geometry" />
          </mxCell>
        </UserObject>
        <UserObject label="TawnyFoot" lucidchartObjectId="_N6nFeL8CYIC" id="FUiJqStSi06S3eD_Z6eS-44">
          <mxCell style="html=1;overflow=block;blockSpacing=1;whiteSpace=wrap;;whiteSpace=wrap;fontSize=16.7;fontColor=#333333;spacing=3.8;strokeColor=#5e5e5e;strokeOpacity=100;absoluteArcSize=1;arcSize=9;strokeWidth=2.3;rounded=1;sketch=1;" vertex="1" parent="1">
            <mxGeometry x="977.5" y="520" width="120" height="45" as="geometry" />
          </mxCell>
        </UserObject>
        <UserObject label="" lucidchartObjectId="qO6np6Bd7pjw" id="FUiJqStSi06S3eD_Z6eS-45">
          <mxCell style="html=1;jettySize=18;whiteSpace=wrap;fontSize=13;strokeColor=#b85450;strokeOpacity=100;strokeWidth=1.5;arcSize=12;edgeStyle=orthogonalEdgeStyle;startArrow=none;;endArrow=none;;exitX=1.009;exitY=0.5;exitPerimeter=0;entryX=-0.009;entryY=0.5;entryPerimeter=0;fillColor=#f8cecc;sketch=1;" edge="1" parent="1" source="FUiJqStSi06S3eD_Z6eS-43" target="FUiJqStSi06S3eD_Z6eS-44">
            <mxGeometry width="100" height="100" relative="1" as="geometry">
              <Array as="points" />
            </mxGeometry>
          </mxCell>
        </UserObject>
        <UserObject label="" lucidchartObjectId="mR6nr4ofL-PY" id="FUiJqStSi06S3eD_Z6eS-46">
          <mxCell style="html=1;jettySize=18;whiteSpace=wrap;fontSize=13;strokeColor=#5E5E5E;strokeWidth=1.5;arcSize=12;edgeStyle=orthogonalEdgeStyle;startArrow=none;;endArrow=none;;entryX=0.5;entryY=0;entryDx=0;entryDy=0;sketch=1;" edge="1" parent="1" target="FUiJqStSi06S3eD_Z6eS-6">
            <mxGeometry width="100" height="100" relative="1" as="geometry">
              <Array as="points">
                <mxPoint x="961.5" y="620" />
              </Array>
              <mxPoint x="962.5" y="543" as="sourcePoint" />
              <mxPoint x="961.4200000000001" y="623.8749999999998" as="targetPoint" />
            </mxGeometry>
          </mxCell>
        </UserObject>
        <UserObject label="BriarHiss" lucidchartObjectId="oT6n7k2YRqkz" id="FUiJqStSi06S3eD_Z6eS-47">
          <mxCell style="html=1;overflow=block;blockSpacing=1;whiteSpace=wrap;;whiteSpace=wrap;fontSize=16.7;fontColor=#333333;spacing=3.8;strokeColor=#5e5e5e;strokeOpacity=100;absoluteArcSize=1;arcSize=9;strokeWidth=2.3;rounded=1;sketch=1;" vertex="1" parent="1">
            <mxGeometry x="1207.5" y="620" width="120" height="45" as="geometry" />
          </mxCell>
        </UserObject>
        <UserObject label="SquirrelSwim" lucidchartObjectId="tT6nzAwxQzBk" id="FUiJqStSi06S3eD_Z6eS-48">
          <mxCell style="html=1;overflow=block;blockSpacing=1;whiteSpace=wrap;;whiteSpace=wrap;fontSize=16.7;fontColor=#333333;spacing=3.8;strokeColor=#5e5e5e;strokeOpacity=100;absoluteArcSize=1;arcSize=9;strokeWidth=2.3;rounded=1;sketch=1;" vertex="1" parent="1">
            <mxGeometry x="1507.5" y="620" width="120" height="45" as="geometry" />
          </mxCell>
        </UserObject>
        <UserObject label="ThistleClaws" lucidchartObjectId="HT6n_Y1mThux" id="FUiJqStSi06S3eD_Z6eS-49">
          <mxCell style="html=1;overflow=block;blockSpacing=1;whiteSpace=wrap;;whiteSpace=wrap;fontSize=16.7;fontColor=#333333;spacing=3.8;strokeColor=#5e5e5e;strokeOpacity=100;absoluteArcSize=1;arcSize=9;strokeWidth=2.3;rounded=1;sketch=1;" vertex="1" parent="1">
            <mxGeometry x="1357.5" y="620" width="120" height="45" as="geometry" />
          </mxCell>
        </UserObject>
        <UserObject label="" lucidchartObjectId="9T6nlAMiKmDT" id="FUiJqStSi06S3eD_Z6eS-50">
          <mxCell style="html=1;jettySize=18;whiteSpace=wrap;fontSize=13;strokeColor=#5E5E5E;strokeWidth=1.5;arcSize=12;edgeStyle=orthogonalEdgeStyle;startArrow=none;;endArrow=none;;exitX=0.5;exitY=-0.025;exitPerimeter=0;sketch=1;" edge="1" parent="1" source="FUiJqStSi06S3eD_Z6eS-49">
            <mxGeometry width="100" height="100" relative="1" as="geometry">
              <Array as="points">
                <mxPoint x="1417.5" y="580" />
                <mxPoint x="1417.5" y="580" />
              </Array>
              <mxPoint x="1418" y="478" as="targetPoint" />
            </mxGeometry>
          </mxCell>
        </UserObject>
        <UserObject label="" lucidchartObjectId="bU6nRvkBDQGP" id="FUiJqStSi06S3eD_Z6eS-51">
          <mxCell style="html=1;jettySize=18;whiteSpace=wrap;fontSize=13;strokeColor=#5E5E5E;strokeWidth=1.5;arcSize=12;edgeStyle=orthogonalEdgeStyle;startArrow=none;;endArrow=none;;exitX=-0.009;exitY=0.5;exitPerimeter=0;entryX=1.009;entryY=0.5;entryPerimeter=0;sketch=1;" edge="1" parent="1" source="FUiJqStSi06S3eD_Z6eS-48" target="FUiJqStSi06S3eD_Z6eS-49">
            <mxGeometry width="100" height="100" relative="1" as="geometry">
              <Array as="points" />
            </mxGeometry>
          </mxCell>
        </UserObject>
        <UserObject label="" lucidchartObjectId="eU6nitvqeQJ3" id="FUiJqStSi06S3eD_Z6eS-52">
          <mxCell style="html=1;jettySize=18;whiteSpace=wrap;fontSize=13;strokeColor=#5E5E5E;strokeWidth=1.5;arcSize=12;edgeStyle=orthogonalEdgeStyle;startArrow=none;;endArrow=none;;exitX=-0.009;exitY=0.5;exitPerimeter=0;entryX=1.009;entryY=0.5;entryPerimeter=0;sketch=1;" edge="1" parent="1" source="FUiJqStSi06S3eD_Z6eS-49" target="FUiJqStSi06S3eD_Z6eS-47">
            <mxGeometry width="100" height="100" relative="1" as="geometry">
              <Array as="points" />
            </mxGeometry>
          </mxCell>
        </UserObject>
        <UserObject label="" lucidchartObjectId="zV6nmgGL8G4V" id="FUiJqStSi06S3eD_Z6eS-53">
          <mxCell style="html=1;jettySize=18;whiteSpace=wrap;fontSize=13;strokeColor=#5E5E5E;strokeWidth=1.5;arcSize=12;edgeStyle=orthogonalEdgeStyle;startArrow=none;;endArrow=none;;sketch=1;" edge="1" parent="1">
            <mxGeometry width="100" height="100" relative="1" as="geometry">
              <Array as="points">
                <mxPoint x="1640" y="640" />
                <mxPoint x="1698" y="640" />
              </Array>
              <mxPoint x="1640" y="563" as="sourcePoint" />
              <mxPoint x="1697.5" y="720" as="targetPoint" />
            </mxGeometry>
          </mxCell>
        </UserObject>
        <UserObject label="" lucidchartObjectId="GKlow7b7QTN~" id="FUiJqStSi06S3eD_Z6eS-54">
          <mxCell style="html=1;jettySize=18;whiteSpace=wrap;fontSize=13;strokeColor=#b85450;strokeOpacity=100;strokeWidth=1.5;arcSize=12;edgeStyle=orthogonalEdgeStyle;startArrow=none;;endArrow=none;;exitX=-0.009;exitY=0.5;exitPerimeter=0;entryX=1.009;entryY=0.5;entryPerimeter=0;fillColor=#f8cecc;sketch=1;" edge="1" parent="1" source="FUiJqStSi06S3eD_Z6eS-35" target="FUiJqStSi06S3eD_Z6eS-27">
            <mxGeometry width="100" height="100" relative="1" as="geometry">
              <Array as="points" />
            </mxGeometry>
          </mxCell>
        </UserObject>
        <UserObject label="" lucidchartObjectId="4Qlo~swPg.hA" id="FUiJqStSi06S3eD_Z6eS-55">
          <mxCell style="html=1;jettySize=18;whiteSpace=wrap;fontSize=13;strokeColor=#b85450;strokeOpacity=100;strokeWidth=1.5;arcSize=12;edgeStyle=orthogonalEdgeStyle;startArrow=none;;endArrow=none;;exitX=1.009;exitY=0.5;exitPerimeter=0;entryX=-0.009;entryY=0.5;entryPerimeter=0;fillColor=#f8cecc;sketch=1;" edge="1" parent="1" source="FUiJqStSi06S3eD_Z6eS-24" target="FUiJqStSi06S3eD_Z6eS-31">
            <mxGeometry width="100" height="100" relative="1" as="geometry">
              <Array as="points" />
            </mxGeometry>
          </mxCell>
        </UserObject>
        <UserObject label="ScorchNight" lucidchartObjectId="vRlonehAEG~2" id="FUiJqStSi06S3eD_Z6eS-56">
          <mxCell style="html=1;overflow=block;blockSpacing=1;whiteSpace=wrap;;whiteSpace=wrap;fontSize=16.7;fontColor=#333333;spacing=3.8;strokeColor=#5e5e5e;strokeOpacity=100;absoluteArcSize=1;arcSize=9;strokeWidth=2.3;rounded=1;sketch=1;" vertex="1" parent="1">
            <mxGeometry x="527.5" y="695" width="120" height="45" as="geometry" />
          </mxCell>
        </UserObject>
        <UserObject label="" lucidchartObjectId="YSlojY~FfSWc" id="FUiJqStSi06S3eD_Z6eS-57">
          <mxCell style="html=1;jettySize=18;whiteSpace=wrap;fontSize=13;strokeColor=#5E5E5E;strokeWidth=1.5;arcSize=12;edgeStyle=orthogonalEdgeStyle;startArrow=none;;endArrow=none;;entryX=0.5;entryY=-0.025;entryPerimeter=0;sketch=1;" edge="1" parent="1">
            <mxGeometry width="100" height="100" relative="1" as="geometry">
              <Array as="points">
                <mxPoint x="367.5" y="580" />
                <mxPoint x="438.5" y="580" />
              </Array>
              <mxPoint x="367.5" y="540" as="sourcePoint" />
              <mxPoint x="438.4999999999998" y="694.9949999999999" as="targetPoint" />
            </mxGeometry>
          </mxCell>
        </UserObject>
        <UserObject label="StormingCall" lucidchartObjectId="g4loRliNZPfK" id="FUiJqStSi06S3eD_Z6eS-58">
          <mxCell style="html=1;overflow=block;blockSpacing=1;whiteSpace=wrap;;whiteSpace=wrap;fontSize=16.7;fontColor=#333333;spacing=3.8;strokeColor=#5e5e5e;strokeOpacity=100;absoluteArcSize=1;arcSize=9;strokeWidth=2.3;rounded=1;sketch=1;" vertex="1" parent="1">
            <mxGeometry x="677.5" y="695" width="120" height="45" as="geometry" />
          </mxCell>
        </UserObject>
        <UserObject label="" lucidchartObjectId="z4loe81sxhFM" id="FUiJqStSi06S3eD_Z6eS-59">
          <mxCell style="html=1;jettySize=18;whiteSpace=wrap;fontSize=13;strokeColor=#5E5E5E;strokeWidth=1.5;arcSize=12;edgeStyle=orthogonalEdgeStyle;startArrow=none;;endArrow=none;;exitX=-0.009;exitY=0.5;exitPerimeter=0;entryX=1.009;entryY=0.5;entryPerimeter=0;sketch=1;" edge="1" parent="1" source="FUiJqStSi06S3eD_Z6eS-58" target="FUiJqStSi06S3eD_Z6eS-56">
            <mxGeometry width="100" height="100" relative="1" as="geometry">
              <Array as="points" />
            </mxGeometry>
          </mxCell>
        </UserObject>
        <UserObject label="" lucidchartObjectId="C4lotgxP-2BV" id="FUiJqStSi06S3eD_Z6eS-60">
          <mxCell style="html=1;jettySize=18;whiteSpace=wrap;fontSize=13;strokeColor=#5E5E5E;strokeWidth=1.5;arcSize=12;edgeStyle=orthogonalEdgeStyle;startArrow=none;;endArrow=none;;noJump=0;backgroundOutline=0;metaEdit=0;fixDash=0;snapToPoint=1;sketch=1;" edge="1" parent="1">
            <mxGeometry width="100" height="100" relative="1" as="geometry">
              <Array as="points" />
              <mxPoint x="662.5" y="720" as="sourcePoint" />
              <mxPoint x="662.5" y="543" as="targetPoint" />
            </mxGeometry>
          </mxCell>
        </UserObject>
        <UserObject label="SalmonRiver" lucidchartObjectId="j6lo-aHFzjqm" id="FUiJqStSi06S3eD_Z6eS-61">
          <mxCell style="html=1;overflow=block;blockSpacing=1;whiteSpace=wrap;;whiteSpace=wrap;fontSize=16.7;fontColor=#333333;spacing=3.8;strokeColor=#5e5e5e;strokeOpacity=100;absoluteArcSize=1;arcSize=9;strokeWidth=2.3;rounded=1;sketch=1;" vertex="1" parent="1">
            <mxGeometry x="1420" y="695" width="120" height="45" as="geometry" />
          </mxCell>
        </UserObject>
        <mxCell id="FUiJqStSi06S3eD_Z6eS-62" value="" style="endArrow=none;html=1;sketch=1;" edge="1" parent="1" source="FUiJqStSi06S3eD_Z6eS-9">
          <mxGeometry width="50" height="50" relative="1" as="geometry">
            <mxPoint x="1677.5" y="767.5" as="sourcePoint" />
            <mxPoint x="1707.5" y="718" as="targetPoint" />
          </mxGeometry>
        </mxCell>
        <mxCell id="FUiJqStSi06S3eD_Z6eS-63" style="edgeStyle=none;orthogonalLoop=1;jettySize=auto;html=1;exitX=1;exitY=0.5;exitDx=0;exitDy=0;entryX=0;entryY=0.5;entryDx=0;entryDy=0;endArrow=none;endFill=0;fillColor=#f8cecc;strokeColor=#b85450;sketch=1;" edge="1" parent="1" source="FUiJqStSi06S3eD_Z6eS-64" target="FUiJqStSi06S3eD_Z6eS-65">
          <mxGeometry relative="1" as="geometry" />
        </mxCell>
        <UserObject label="Hawk" lucidchartObjectId="GL6nMM1_W.dq" id="FUiJqStSi06S3eD_Z6eS-64">
          <mxCell style="html=1;overflow=block;blockSpacing=1;whiteSpace=wrap;;whiteSpace=wrap;fontSize=16.7;fontColor=#333333;spacing=3.8;strokeColor=#5e5e5e;strokeOpacity=100;absoluteArcSize=1;arcSize=9;strokeWidth=2.3;rounded=1;sketch=1;" vertex="1" parent="1">
            <mxGeometry x="1727.5" y="485" width="120" height="45" as="geometry" />
          </mxCell>
        </UserObject>
        <UserObject label="Seashell" lucidchartObjectId="GL6nMM1_W.dq" id="FUiJqStSi06S3eD_Z6eS-65">
          <mxCell style="html=1;overflow=block;blockSpacing=1;whiteSpace=wrap;;whiteSpace=wrap;fontSize=16.7;fontColor=#333333;spacing=3.8;strokeColor=#5e5e5e;strokeOpacity=100;absoluteArcSize=1;arcSize=9;strokeWidth=2.3;rounded=1;sketch=1;" vertex="1" parent="1">
            <mxGeometry x="1887.5" y="485" width="120" height="45" as="geometry" />
          </mxCell>
        </UserObject>
        <mxCell id="FUiJqStSi06S3eD_Z6eS-66" value="" style="endArrow=none;html=1;entryX=0;entryY=0.5;entryDx=0;entryDy=0;exitX=0.5;exitY=0;exitDx=0;exitDy=0;fillColor=#f8cecc;strokeColor=#b85450;sketch=1;" edge="1" parent="1" source="FUiJqStSi06S3eD_Z6eS-9" target="FUiJqStSi06S3eD_Z6eS-12">
          <mxGeometry width="50" height="50" relative="1" as="geometry">
            <mxPoint x="1737.5" y="670" as="sourcePoint" />
            <mxPoint x="1787.5" y="620" as="targetPoint" />
            <Array as="points">
              <mxPoint x="1617.5" y="670" />
              <mxPoint x="1787.5" y="670" />
              <mxPoint x="1787.5" y="578" />
            </Array>
          </mxGeometry>
        </mxCell>
        <UserObject label="FreezingBite&lt;br&gt;" lucidchartObjectId="lx6nJb_0bG_-" id="FUiJqStSi06S3eD_Z6eS-67">
          <mxCell style="html=1;overflow=block;blockSpacing=1;whiteSpace=wrap;;whiteSpace=wrap;fontSize=16.7;fontColor=#333333;spacing=3.8;strokeColor=#5e5e5e;strokeOpacity=100;absoluteArcSize=1;arcSize=9;strokeWidth=2.3;rounded=1;sketch=1;" vertex="1" parent="1">
            <mxGeometry x="677.5" y="610" width="120" height="45" as="geometry" />
          </mxCell>
        </UserObject>
      </root>
    </mxGraphModel>
  </diagram>
</mxfile>
